<svg xmlns="http://www.w3.org/2000/svg" width="39.594" height="39" viewBox="0 0 39.594 39">
  <defs>
    <style>
      .cls-1 {
        fill: #f5c506;
        fill-rule: evenodd;
      }
    </style>
  </defs>
  <path id="Shape_8_copy_3" data-name="Shape 8 copy 3" class="cls-1" d="M31,50.841L37.235,44.5,31,38.158h5.292L42.527,44.5l-6.239,6.341H31Zm8.032,0L45.267,44.5l-6.239-6.341H44.32L50.559,44.5,44.32,50.841H39.028Zm31.564,0L64.353,44.5l6.239-6.341H65.3L59.06,44.5,65.3,50.841h5.292Zm-8.032,0L56.321,44.5l6.239-6.341H57.268L51.029,44.5l6.239,6.341H62.56ZM44.357,25l6.437,6.146L57.231,25V30.21l-6.437,6.147L44.357,30.21V25Zm0,7.913,6.437,6.146,6.437-6.146v5.213l-6.437,6.147-6.437-6.147V32.909Zm0,31.095,6.437-6.146L57.231,64V58.79l-6.437-6.147L44.357,58.79V64Zm0-7.912,6.437-6.146,6.437,6.146V50.878l-6.437-6.147-6.437,6.147v5.213Z" transform="translate(-31 -25)"/>
</svg>
