<svg xmlns="http://www.w3.org/2000/svg" width="37.531" height="36.969" viewBox="0 0 37.531 36.969">
  <defs>
    <style>
      .cls-1 {
        fill: #f5c506;
        fill-rule: evenodd;
        opacity: 0.5;
      }
    </style>
  </defs>
  <path id="Shape_8_copy_4" data-name="Shape 8 copy 4" class="cls-1" d="M13.037,21.472l8.958-.335-0.06-8.831,3.825,3.6,0.06,8.831-8.958.335Zm5.8,5.469,8.958-.335-0.06-8.831,3.825,3.6,0.06,8.831-8.958.335ZM41.653,48.431L41.593,39.6l8.958-.335-3.825-3.6L37.768,36l0.061,8.831Zm-5.8-5.469-0.06-8.831,8.958-.335-3.825-3.6-8.958.335,0.061,8.831ZM40.825,11.89l0.34,8.825,8.964-.059-3.657,3.768-8.964.059-0.34-8.825Zm-5.551,5.718,0.34,8.825,8.964-.059L40.92,30.142l-8.964.059-0.34-8.825ZM13.459,40.082l8.964-.059,0.34,8.825,3.658-3.768-0.34-8.825-8.964.06Zm5.551-5.718,8.964-.059,0.34,8.825,3.657-3.768-0.34-8.825-8.964.06Z" transform="translate(-13.031 -11.875)"/>
</svg>
